<svg xmlns="http://www.w3.org/2000/svg" width="24" height="24" viewBox="0 0 24 24" className="h-4 w-4 mr-1">
  <rect width="24" height="24" fill="#B22234"/>
  <rect width="24" height="2" y="2" fill="#FFFFFF"/>
  <rect width="24" height="2" y="4" fill="#B22234"/>
  <rect width="24" height="2" y="6" fill="#FFFFFF"/>
  <rect width="24" height="2" y="8" fill="#B22234"/>
  <rect width="24" height="2" y="10" fill="#FFFFFF"/>
  <rect width="24" height="2" y="12" fill="#B22234"/>
  <rect width="24" height="2" y="14" fill="#FFFFFF"/>
  <rect width="24" height="2" y="16" fill="#B22234"/>
  <rect width="24" height="2" y="18" fill="#FFFFFF"/>
  <rect width="24" height="2" y="20" fill="#B22234"/>
  <rect width="10" height="13" fill="#3C3B6E"/>
  <g fill="#FFFFFF">
    <circle cx="2" cy="2" r="1"/>
    <circle cx="2" cy="6" r="1"/>
    <circle cx="2" cy="10" r="1"/>
    <circle cx="2" cy="14" r="1"/>
    <circle cx="2" cy="18" r="1"/>
    <circle cx="4" cy="4" r="1"/>
    <circle cx="4" cy="8" r="1"/>
    <circle cx="4" cy="12" r="1"/>
    <circle cx="4" cy="16" r="1"/>
    <circle cx="4" cy="20" r="1"/>
    <circle cx="6" cy="2" r="1"/>
    <circle cx="6" cy="6" r="1"/>
    <circle cx="6" cy="10" r="1"/>
    <circle cx="6" cy="14" r="1"/>
    <circle cx="6" cy="18" r="1"/>
    <circle cx="8" cy="4" r="1"/>
    <circle cx="8" cy="8" r="1"/>
    <circle cx="8" cy="12" r="1"/>
    <circle cx="8" cy="16" r="1"/>
    <circle cx="8" cy="20" r="1"/>
  </g>
</svg>
